<?xml version="1.0" standalone="no"?>
<!DOCTYPE svg PUBLIC "-//W3C//DTD SVG 20010904//EN"
 "http://www.w3.org/TR/2001/REC-SVG-20010904/DTD/svg10.dtd">
<svg version="1.0" xmlns="http://www.w3.org/2000/svg"
 width="1280.000000pt" height="1280.000000pt" viewBox="0 0 1280.000000 1280.000000"
 preserveAspectRatio="xMidYMid meet">
<g transform="translate(0.000000,1280.000000) scale(0.100000,-0.100000)"
fill="#000000" stroke="none">
<path d="M2318 12779 c-132 -67 -111 -261 33 -299 23 -6 39 -14 36 -16 -3 -3
-39 -14 -81 -24 -93 -24 -126 -40 -182 -92 -55 -51 -81 -93 -104 -168 l-18
-60 44 0 c24 0 44 4 44 10 0 27 43 119 70 148 38 42 53 34 35 -18 -17 -49 -38
-197 -30 -210 3 -6 21 -10 40 -10 64 0 65 -5 65 -266 l0 -235 43 3 42 3 3 242
2 243 25 6 c53 13 55 2 55 -257 l0 -239 45 0 45 0 0 244 c0 270 -4 256 67 256
l36 0 -7 73 c-3 39 -14 98 -23 130 -9 32 -12 61 -8 65 13 13 74 -69 93 -127
l19 -56 76 -3 c57 -2 78 1 81 10 18 63 42 112 70 144 19 22 37 36 41 32 4 -3
-3 -44 -14 -89 -12 -46 -21 -104 -21 -131 0 -48 0 -48 34 -48 69 0 66 13 66
-256 l0 -244 45 0 45 0 0 239 c0 259 2 270 55 257 l25 -6 2 -243 3 -242 43 -3
42 -3 0 240 c0 227 1 241 19 251 11 5 34 10 52 10 l32 0 -6 83 c-3 45 -12 102
-21 126 -16 44 -11 67 10 53 24 -16 72 -94 84 -137 l13 -45 77 0 77 0 12 43
c22 72 85 159 104 141 2 -2 -4 -35 -14 -72 -11 -36 -19 -95 -19 -129 l0 -63
31 0 c17 0 39 -5 50 -10 18 -10 19 -24 19 -251 l0 -240 43 3 42 3 3 242 2 243
25 6 c53 13 55 2 55 -257 l0 -239 45 0 45 0 0 244 c0 270 -4 256 67 256 l36 0
-6 70 c-3 38 -13 97 -23 130 -9 33 -13 64 -9 68 18 18 85 -87 111 -176 3 -9
24 -12 81 -10 l76 3 19 56 c19 58 80 140 93 127 4 -4 0 -35 -9 -68 -10 -33
-20 -92 -23 -130 l-6 -70 36 0 c71 0 67 14 67 -256 l0 -244 45 0 45 0 0 239
c0 259 2 270 55 257 l25 -6 2 -243 3 -242 43 -3 42 -3 0 233 c0 128 4 239 9
247 5 8 29 17 53 20 l43 6 -4 64 c-2 35 -11 93 -21 128 -9 35 -13 66 -9 69 23
14 109 -126 109 -176 0 -6 19 -10 41 -10 l41 0 -7 38 c-11 60 -40 117 -86 167
-57 61 -109 91 -203 114 -43 11 -80 22 -83 25 -3 2 14 10 38 16 144 39 161
235 26 300 -53 26 -103 25 -152 -3 -57 -32 -85 -79 -85 -142 0 -80 44 -132
135 -160 27 -8 7 -19 -63 -34 -116 -24 -218 -102 -262 -199 -13 -29 -28 -52
-34 -52 -6 0 -21 21 -33 48 -47 102 -146 178 -264 203 -72 15 -91 25 -64 34
58 19 75 29 101 56 27 28 29 37 29 104 0 64 -3 77 -25 100 -14 15 -42 36 -62
46 -112 57 -244 -31 -235 -158 5 -71 40 -116 108 -138 27 -9 48 -19 46 -22 -3
-2 -40 -13 -83 -24 -43 -11 -96 -30 -119 -43 -55 -33 -122 -106 -145 -161 -11
-25 -24 -45 -29 -45 -6 0 -22 24 -36 53 -53 105 -132 164 -264 197 -79 20 -87
20 -158 6 -139 -29 -236 -100 -286 -208 -12 -27 -26 -48 -32 -48 -5 0 -25 29
-44 65 -49 97 -139 162 -253 186 -70 15 -90 26 -63 34 91 28 135 80 135 160 0
123 -130 201 -242 144z"/>
<path d="M3110 12783 c-108 -46 -141 -166 -68 -249 77 -87 242 -68 284 32 34
82 6 163 -72 206 -55 31 -92 34 -144 11z"/>
<path d="M5445 12777 c-57 -32 -85 -79 -85 -142 0 -80 44 -132 135 -160 27 -8
7 -19 -63 -34 -72 -15 -145 -54 -193 -102 -39 -39 -90 -134 -103 -191 -6 -27
-5 -28 34 -28 30 0 42 5 46 18 27 82 94 185 110 169 4 -3 -1 -36 -10 -73 -9
-37 -20 -96 -23 -131 l-6 -63 39 0 c21 0 45 -4 51 -8 9 -6 13 -71 15 -247 l3
-240 43 -3 42 -3 0 239 c0 200 2 242 15 252 21 17 61 4 69 -22 3 -13 6 -123 6
-246 l0 -223 43 3 42 3 3 240 c2 176 6 241 15 247 6 4 29 8 51 8 l38 0 -7 67
c-4 36 -13 90 -21 120 -18 69 -18 84 1 77 22 -9 75 -94 87 -141 l10 -43 79 0
c77 0 79 0 85 28 16 65 92 177 109 160 3 -2 -4 -40 -15 -83 -11 -43 -20 -102
-20 -132 l0 -53 38 0 c21 0 43 -5 50 -12 9 -9 12 -78 12 -250 l0 -238 45 0 45
0 0 244 c0 236 1 245 20 251 11 3 29 3 40 0 19 -6 20 -15 20 -251 l0 -244 45
0 45 0 0 238 c0 172 3 241 12 250 7 7 30 12 51 12 l40 0 -6 78 c-4 42 -13 101
-22 130 -9 30 -13 57 -10 60 4 4 21 -9 39 -29 28 -29 54 -83 72 -146 2 -9 28
-13 83 -13 l79 0 6 33 c14 71 106 194 106 140 0 -10 -7 -39 -14 -65 -8 -26
-18 -79 -22 -117 l-7 -71 39 0 c22 0 45 -4 51 -8 9 -6 13 -71 15 -247 l3 -240
43 -3 42 -3 0 241 0 240 24 11 c17 8 29 8 45 0 21 -11 21 -17 21 -252 l0 -240
43 3 42 3 3 240 c2 176 6 241 15 247 6 4 29 8 51 8 l38 0 -7 73 c-4 39 -14 92
-21 117 -8 25 -14 53 -14 63 0 54 92 -69 106 -140 l6 -33 78 0 77 0 23 61 c21
58 82 141 94 128 3 -3 -3 -41 -14 -84 -11 -43 -20 -102 -20 -132 l0 -53 38 0
c21 0 43 -5 50 -12 9 -9 12 -78 12 -250 l0 -238 45 0 45 0 0 244 c0 236 1 245
20 251 11 3 29 3 40 0 19 -6 20 -15 20 -251 l0 -244 45 0 45 0 0 238 c0 172 3
241 12 250 7 7 29 12 50 12 l38 0 0 53 c0 30 -9 89 -20 132 -11 43 -17 81 -14
84 12 13 73 -70 94 -128 23 -61 23 -61 62 -61 39 0 40 0 33 33 -13 64 -65 155
-113 197 -60 54 -86 67 -178 90 -42 10 -78 21 -81 24 -3 2 14 10 37 17 143 43
159 235 25 298 -25 12 -58 21 -75 21 -17 0 -50 -9 -75 -21 -133 -63 -117 -255
25 -298 23 -7 40 -15 37 -17 -3 -3 -40 -14 -83 -25 -125 -31 -220 -106 -261
-205 -10 -24 -23 -44 -30 -44 -6 0 -22 24 -36 53 -44 96 -142 172 -252 195
-27 6 -61 15 -75 20 -24 9 -23 10 17 21 86 23 130 89 120 178 -6 55 -31 90
-83 120 -71 41 -166 19 -217 -49 -25 -33 -34 -117 -17 -158 17 -41 62 -77 113
-91 40 -11 41 -12 17 -21 -14 -5 -47 -14 -75 -20 -110 -23 -209 -100 -254
-196 -14 -29 -29 -52 -35 -52 -6 0 -19 20 -29 44 -42 101 -136 174 -268 207
-81 20 -87 20 -159 5 -142 -31 -227 -92 -285 -205 -14 -28 -30 -51 -35 -51 -5
0 -18 20 -29 44 -24 55 -92 130 -145 161 -23 13 -77 33 -121 45 -44 12 -81 23
-83 25 -2 2 14 9 37 15 84 22 128 89 118 177 -12 113 -142 177 -242 120z"/>
<path d="M6223 12778 c-81 -39 -113 -137 -71 -217 59 -114 241 -113 297 2 41
85 14 167 -70 211 -60 31 -99 32 -156 4z"/>
<path d="M8580 12781 c-50 -27 -80 -63 -90 -107 -20 -88 29 -174 108 -190 48
-9 48 -22 0 -33 -143 -35 -218 -80 -275 -164 -26 -38 -63 -134 -63 -161 0 -12
81 -6 84 7 18 61 42 111 70 143 19 22 37 36 41 32 4 -3 -1 -33 -10 -65 -9 -31
-19 -90 -22 -130 l-6 -73 36 0 c71 0 67 14 67 -256 l0 -244 45 0 45 0 0 244
c0 236 1 245 20 251 11 3 29 4 40 0 19 -6 20 -17 22 -248 l3 -242 43 -3 42 -3
0 238 c0 173 3 242 12 251 7 7 30 12 51 12 l40 0 -6 83 c-3 45 -13 104 -22
130 -10 26 -14 51 -11 54 18 18 93 -92 110 -159 6 -28 7 -28 86 -28 45 0 80 4
80 10 0 50 86 190 109 176 4 -3 0 -34 -9 -69 -10 -35 -19 -93 -21 -128 l-4
-64 43 -6 c24 -3 48 -12 53 -20 5 -8 9 -119 9 -246 l0 -233 39 0 c32 0 40 4
45 23 3 12 6 122 6 244 l0 223 25 6 c53 13 55 3 55 -257 l0 -239 45 0 45 0 0
244 c0 270 -4 256 67 256 l36 0 -6 70 c-3 38 -13 97 -23 130 -19 68 -14 82 17
54 26 -23 49 -64 70 -124 l16 -45 76 -3 c57 -2 78 1 81 10 26 89 93 194 111
176 4 -4 0 -35 -9 -68 -10 -33 -20 -92 -23 -130 l-6 -70 36 0 c71 0 67 14 67
-256 l0 -244 45 0 45 0 0 239 c0 259 2 270 55 257 l25 -6 2 -243 3 -242 43 -3
42 -3 0 240 c0 227 1 241 19 251 11 5 33 10 50 10 18 0 31 5 32 13 3 46 -5
120 -21 178 -10 38 -14 72 -9 74 19 12 81 -77 98 -142 l12 -43 79 0 c45 0 80
4 80 10 0 49 86 190 108 176 5 -3 1 -36 -9 -73 -9 -37 -18 -95 -20 -128 -4
-58 -3 -60 21 -63 14 -1 36 -5 49 -8 l24 -5 -6 -245 c-6 -236 -6 -244 13 -244
23 0 23 -2 51 270 11 113 25 208 31 211 5 3 20 4 34 1 32 -6 31 -16 -6 -260
-33 -208 -34 -237 -10 -237 11 0 29 59 70 235 l55 235 47 -3 c46 -3 47 -2 58
35 6 21 14 80 17 131 6 102 16 111 47 47 12 -24 20 -62 21 -103 1 -63 2 -66
33 -80 17 -9 34 -13 37 -11 2 3 7 30 11 60 17 149 -77 278 -253 346 -40 15
-73 30 -73 34 0 3 29 9 65 11 114 10 178 63 177 149 -1 81 -91 150 -214 165
-81 9 -151 -10 -199 -56 -34 -32 -39 -43 -39 -82 0 -67 36 -111 130 -156 l55
-26 -30 -7 c-16 -4 -59 -12 -95 -19 -120 -22 -199 -81 -247 -187 -14 -29 -28
-53 -33 -53 -5 0 -21 24 -35 53 -52 104 -132 164 -259 196 -43 11 -80 22 -83
24 -2 3 18 12 45 21 56 19 75 36 97 89 21 50 19 85 -7 136 -27 51 -90 91 -144
91 -42 0 -100 -28 -134 -65 -22 -23 -25 -36 -25 -100 0 -67 2 -76 29 -104 26
-27 43 -37 101 -56 27 -9 8 -19 -64 -34 -118 -25 -217 -101 -264 -203 -12 -27
-26 -48 -32 -48 -5 0 -25 29 -44 65 -53 103 -139 163 -275 191 -70 14 -78 14
-157 -6 -45 -11 -101 -31 -124 -44 -55 -32 -122 -107 -146 -162 -11 -24 -24
-44 -29 -44 -5 0 -23 26 -39 58 -30 60 -96 129 -150 157 -17 8 -66 24 -107 35
-42 10 -78 21 -81 23 -2 3 13 11 34 17 58 19 89 45 107 90 22 55 20 88 -6 140
-40 78 -142 111 -218 71z"/>
<path d="M9348 12779 c-98 -50 -118 -195 -37 -263 47 -40 100 -50 162 -32 91
26 135 100 115 191 -11 50 -40 82 -96 106 -53 23 -96 23 -144 -2z"/>
<path d="M1402 12700 c-167 -56 -218 -220 -89 -287 17 -8 65 -19 107 -22 l75
-6 -67 -43 c-132 -85 -182 -166 -184 -300 0 -45 -4 -82 -8 -83 -3 0 -31 12
-61 26 -114 56 -228 42 -359 -45 -62 -42 -80 -61 -110 -114 -86 -154 -83 -309
9 -418 14 -16 23 -34 19 -39 -3 -5 -27 -9 -53 -9 -121 0 -233 -84 -285 -215
-43 -105 -46 -129 -32 -224 22 -142 80 -229 193 -285 29 -15 53 -30 53 -34 0
-5 -23 -19 -50 -32 -99 -46 -175 -146 -199 -260 -15 -70 -27 -93 -36 -65 -15
49 -43 91 -75 113 -29 20 -44 23 -93 20 -67 -5 -101 -27 -134 -84 -41 -72 -19
-166 50 -218 40 -30 144 -30 184 0 26 19 54 64 68 109 9 28 21 5 36 -65 26
-128 108 -226 222 -268 103 -38 97 -39 97 11 0 43 -2 45 -32 51 -72 14 -195
106 -141 106 10 0 39 -7 65 -14 26 -8 79 -18 117 -22 l71 -7 0 39 c0 22 4 45
8 51 6 9 71 13 247 15 l240 3 3 43 3 42 -231 0 c-140 0 -239 4 -251 10 -25 14
-25 56 0 70 12 6 111 10 251 10 l231 0 -3 43 -3 42 -240 3 c-176 2 -241 6
-247 15 -4 6 -8 29 -8 51 l0 39 -71 -7 c-38 -4 -91 -14 -117 -22 -26 -7 -55
-14 -65 -14 -54 0 69 92 141 106 l32 6 0 78 0 77 -60 22 c-63 23 -137 78 -123
92 4 4 40 -1 78 -11 39 -11 96 -19 128 -19 l57 -1 0 33 c0 62 -6 61 259 53
239 -7 241 -7 241 13 0 12 -2 21 -5 21 -19 0 -453 51 -462 55 -17 6 -17 62 0
67 6 3 116 -12 242 -32 127 -21 233 -36 238 -33 4 2 7 10 7 18 0 16 0 16 -265
81 -104 25 -195 51 -202 56 -8 6 -8 19 -1 44 5 20 7 38 5 41 -15 14 -122 33
-190 33 -87 0 -96 10 -37 45 24 14 55 20 105 21 l70 2 31 64 31 63 -39 43
c-22 24 -46 59 -54 77 -14 34 -19 85 -8 85 3 0 28 -24 55 -54 27 -30 72 -69
100 -87 l52 -33 27 34 c16 20 33 31 41 28 8 -4 99 -65 203 -137 146 -101 192
-128 202 -120 8 6 11 15 8 20 -3 5 -86 75 -185 155 -101 83 -179 154 -179 163
0 20 19 41 36 41 7 0 91 -70 186 -155 157 -141 203 -172 203 -138 0 6 -73 88
-162 182 -90 94 -163 174 -163 179 0 5 11 19 25 32 14 13 25 28 25 35 0 15
-96 106 -155 146 -50 34 -50 34 -21 37 47 6 89 -6 140 -38 25 -17 51 -30 57
-30 5 0 34 17 65 37 45 30 54 40 49 57 -22 70 -10 193 20 203 6 2 18 -33 27
-79 9 -46 25 -105 37 -132 19 -42 24 -47 44 -41 68 22 64 28 163 -205 61 -144
96 -216 107 -218 11 -2 17 3 17 15 0 10 -31 113 -70 228 -38 115 -70 215 -70
222 0 17 50 37 62 25 5 -5 37 -110 71 -233 48 -174 66 -225 80 -227 24 -5 23
3 -25 256 -45 240 -45 241 10 242 12 0 25 7 29 16 8 22 -14 119 -43 183 -28
61 -29 71 -11 71 22 0 85 -72 107 -122 20 -46 23 -48 61 -48 37 0 40 2 34 23
-32 105 -102 188 -193 230 -39 18 -65 22 -159 22 -61 0 -109 3 -107 7 2 3 28
20 58 37 30 16 64 44 76 61 30 42 37 108 16 147 -35 68 -160 92 -274 53z"/>
<path d="M11862 12360 c-49 -30 -67 -81 -53 -145 6 -28 25 -70 41 -95 16 -24
28 -46 26 -47 -2 -2 -37 13 -78 32 -163 77 -320 51 -422 -72 l-27 -33 35 -16
35 -17 42 37 c46 42 95 66 134 66 14 0 25 -1 25 -3 0 -1 -33 -36 -72 -77 -40
-41 -80 -88 -88 -103 -14 -27 -13 -29 18 -53 18 -14 32 -29 32 -33 0 -5 -61
-95 -136 -201 -123 -174 -147 -220 -115 -220 6 0 76 80 157 178 81 97 152 180
158 184 15 10 51 -16 51 -35 0 -8 -70 -92 -155 -186 -85 -94 -155 -177 -155
-184 0 -32 46 0 199 143 92 85 171 157 177 159 6 2 23 -9 39 -24 23 -22 32
-25 48 -16 28 15 108 106 134 152 12 21 26 39 31 39 5 0 7 -24 5 -55 -4 -43
-13 -67 -41 -107 l-36 -52 21 -37 c11 -20 30 -48 42 -62 20 -24 23 -25 82 -14
47 8 69 7 104 -4 24 -8 45 -19 47 -24 2 -6 -32 -18 -76 -27 -43 -9 -100 -25
-126 -37 -44 -19 -47 -23 -41 -48 17 -67 26 -60 -203 -153 -117 -49 -218 -93
-224 -99 -8 -8 -8 -14 0 -22 8 -8 74 9 238 62 219 69 229 71 242 53 33 -45 26
-49 -279 -130 -150 -39 -178 -50 -178 -65 0 -11 6 -19 12 -19 7 0 115 19 241
41 125 23 230 39 233 36 4 -3 9 -21 13 -39 7 -33 7 -33 63 -31 33 1 83 12 121
27 104 42 114 32 38 -36 -27 -25 -64 -49 -83 -54 l-33 -10 -3 -82 c-3 -75 -1
-82 16 -82 26 0 135 -56 157 -80 28 -30 12 -34 -61 -16 -37 9 -96 20 -131 23
l-63 6 0 -39 c0 -21 -4 -45 -8 -51 -6 -9 -71 -13 -247 -15 l-240 -3 -3 -42 -3
-43 239 0 c200 0 242 -2 252 -15 17 -21 4 -61 -22 -69 -13 -3 -123 -6 -246 -6
l-223 0 3 -42 3 -43 240 -3 c176 -2 241 -6 247 -15 4 -6 8 -29 8 -51 l0 -38
67 7 c36 4 90 13 120 21 69 18 84 18 77 -1 -9 -22 -88 -71 -139 -85 l-45 -13
0 -78 c0 -77 0 -79 28 -85 67 -17 177 -92 159 -110 -3 -3 -28 1 -54 10 -26 9
-85 20 -130 23 l-83 6 0 -40 c0 -21 -5 -44 -12 -51 -9 -9 -78 -12 -250 -12
l-238 0 0 -45 0 -45 244 0 c236 0 245 -1 251 -20 3 -11 3 -29 0 -40 -6 -19
-15 -20 -251 -20 l-244 0 0 -45 0 -45 238 0 c172 0 241 -3 250 -12 7 -7 12
-30 12 -51 l0 -40 78 6 c42 4 101 13 130 22 30 9 57 13 60 10 4 -4 -10 -22
-32 -41 -32 -28 -82 -52 -143 -70 -8 -2 -13 -20 -13 -44 0 -42 0 -42 33 -35
17 3 60 20 94 36 99 48 169 141 194 262 17 80 25 88 40 38 44 -146 229 -159
299 -20 26 49 25 88 -1 144 -36 77 -123 111 -204 80 -49 -18 -75 -49 -95 -108
-6 -21 -14 -36 -17 -34 -2 3 -13 40 -24 83 -32 128 -90 204 -199 259 -27 14
-50 29 -50 34 0 5 24 21 54 35 71 35 148 119 175 191 12 31 21 63 21 73 1 9 7
31 14 47 12 27 14 28 20 10 33 -97 73 -130 161 -130 74 0 107 19 142 81 61
110 -17 244 -142 244 -80 0 -132 -44 -160 -135 -8 -27 -18 -9 -39 72 -31 126
-95 207 -203 258 -52 24 -56 29 -39 39 161 96 206 173 206 352 0 94 -1 99 -40
169 -46 83 -120 157 -188 188 -36 16 -66 21 -129 21 -46 0 -83 1 -83 3 0 1 14
31 32 65 28 55 32 73 33 143 0 93 -16 140 -76 223 -21 30 -37 57 -35 59 1 2
27 -8 57 -22 129 -60 248 -1 235 117 -6 60 -27 100 -81 153 -84 85 -197 117
-263 75z"/>
<path d="M621 12189 c-103 -31 -210 -162 -211 -257 -1 -113 96 -171 203 -124
72 32 112 67 145 130 41 78 48 122 28 177 -26 67 -90 96 -165 74z"/>
<path d="M12458 11520 c-42 -32 -60 -83 -59 -165 1 -160 112 -285 226 -254 47
13 92 68 100 123 15 95 -39 237 -108 287 -50 36 -120 40 -159 9z"/>
<path d="M145 11270 c-31 -13 -72 -61 -93 -110 -58 -133 -22 -286 76 -327 31
-13 40 -13 78 2 82 31 137 127 136 235 0 80 -23 140 -68 180 -36 31 -85 39
-129 20z"/>
<path d="M614 9791 c-82 -30 -108 -47 -162 -106 -47 -51 -91 -139 -92 -183 -1
-9 -7 -30 -14 -47 -12 -27 -14 -28 -20 -10 -33 97 -73 130 -161 130 -74 0
-107 -19 -142 -81 -62 -108 17 -244 142 -244 80 0 132 44 160 135 8 27 18 8
35 -65 28 -119 99 -213 198 -259 29 -14 52 -30 52 -36 0 -7 -21 -20 -46 -30
-57 -22 -143 -105 -172 -167 -12 -26 -29 -78 -38 -117 -14 -66 -14 -77 1 -144
9 -39 25 -91 35 -114 27 -61 96 -131 162 -164 32 -16 58 -34 58 -39 0 -5 -20
-18 -44 -29 -55 -24 -130 -92 -162 -146 -13 -23 -32 -74 -42 -113 -9 -39 -21
-71 -26 -72 -5 -1 -15 15 -22 35 -25 74 -88 112 -169 102 -56 -6 -100 -38
-125 -90 -26 -53 -25 -103 3 -152 32 -57 79 -85 142 -85 80 0 132 44 160 135
8 27 19 7 34 -63 24 -114 89 -204 186 -253 36 -19 65 -39 65 -44 0 -6 -21 -20
-47 -32 -103 -47 -179 -146 -204 -264 -15 -72 -25 -91 -34 -64 -19 58 -29 75
-56 101 -28 27 -37 29 -104 29 -64 0 -77 -3 -100 -25 -37 -34 -65 -92 -65
-134 0 -50 40 -117 86 -144 31 -18 50 -22 91 -19 71 5 116 40 138 108 9 27 19
48 22 46 2 -3 13 -40 24 -83 22 -90 52 -144 106 -196 44 -42 121 -83 176 -93
l37 -7 0 39 c0 39 -1 40 -53 56 -52 16 -142 81 -133 96 3 4 36 0 73 -10 37
-10 96 -18 131 -18 l62 -1 0 38 c0 21 5 43 12 50 9 9 78 12 251 12 l238 0 -3
43 -3 42 -242 3 -243 2 -6 25 c-13 53 -2 55 257 55 l239 0 0 45 0 45 -244 0
c-270 0 -256 -4 -256 67 l0 36 -70 -6 c-38 -3 -97 -13 -130 -23 -33 -9 -64
-13 -68 -9 -18 18 87 85 176 111 9 3 12 24 10 81 l-3 76 -45 16 c-60 21 -101
44 -124 70 -28 31 -14 36 51 18 32 -9 91 -20 131 -23 l72 -7 0 36 c0 71 -14
67 256 67 l244 0 0 45 0 45 -239 0 c-259 0 -270 2 -257 55 l6 25 243 2 242 3
3 43 3 42 -233 0 c-128 0 -239 4 -247 9 -8 5 -17 29 -20 53 l-6 43 -64 -4
c-35 -2 -93 -11 -128 -21 -35 -9 -66 -13 -69 -9 -14 23 126 109 176 109 6 0
10 35 10 79 l0 79 -55 17 c-59 19 -142 82 -127 97 5 5 27 2 53 -8 24 -9 81
-18 127 -21 l82 -6 0 40 c0 21 5 44 12 51 9 9 78 12 251 12 l238 0 -3 43 -3
42 -242 3 c-231 2 -242 3 -248 22 -4 11 -3 29 0 40 6 19 15 20 251 20 l244 0
0 45 0 45 -244 0 c-269 0 -256 -3 -256 66 0 34 0 34 -48 34 -27 0 -85 -9 -131
-21 -45 -11 -86 -18 -89 -14 -4 4 10 22 32 41 32 28 82 52 144 70 8 2 12 27
12 80 0 70 -2 76 -22 82 -45 11 -141 68 -157 91 -18 28 -32 28 114 -3 39 -9
87 -16 108 -16 36 0 37 1 37 34 0 69 -13 66 256 66 l244 0 0 45 0 45 -238 0
c-172 0 -241 3 -250 12 -17 17 -15 44 4 62 13 14 50 16 250 16 l234 0 0 39 0
40 -240 3 c-267 3 -260 1 -260 71 l0 39 -62 -7 c-35 -3 -89 -13 -121 -21 -74
-18 -88 -18 -81 1 9 22 88 71 139 85 45 12 45 13 45 56 0 50 3 49 -66 25z"/>
<path d="M12120 9190 c0 -24 5 -42 13 -44 63 -18 117 -44 146 -72 20 -18 33
-35 30 -38 -3 -3 -41 3 -84 14 -43 11 -102 20 -132 20 l-53 0 0 -38 c0 -21 -5
-43 -12 -50 -9 -9 -78 -12 -250 -12 l-238 0 0 -45 0 -45 244 0 c236 0 245 -1
251 -20 3 -11 3 -29 0 -40 -6 -19 -15 -20 -251 -20 l-244 0 0 -45 0 -45 238 0
c172 0 241 -3 250 -12 7 -7 12 -29 12 -50 l0 -38 53 0 c30 0 89 9 132 20 43
11 81 17 84 14 13 -12 -70 -73 -128 -94 l-61 -23 0 -78 0 -78 34 -6 c44 -9
133 -60 146 -85 13 -25 3 -26 -73 -6 -30 8 -84 17 -120 21 l-67 7 0 -38 c0
-22 -4 -45 -8 -51 -6 -9 -71 -13 -247 -15 l-240 -3 -3 -42 -3 -43 235 0 c200
0 237 -2 250 -16 19 -18 21 -45 4 -62 -9 -9 -78 -12 -251 -12 l-238 0 3 -42 3
-43 240 -3 c176 -2 241 -6 247 -15 4 -6 8 -29 8 -51 l0 -39 68 7 c38 4 93 13
123 21 74 20 82 20 69 -5 -13 -25 -104 -78 -147 -86 l-33 -6 0 -79 c0 -55 4
-81 13 -83 61 -18 111 -42 143 -70 22 -19 36 -37 32 -41 -3 -3 -30 1 -60 10
-29 9 -88 18 -130 22 l-78 6 0 -36 c0 -71 14 -67 -256 -67 l-244 0 0 -45 0
-45 239 0 c259 0 270 -2 257 -55 l-6 -25 -243 -2 -242 -3 -3 -42 -3 -43 238 0
c173 0 242 -3 251 -12 7 -7 12 -30 12 -51 l0 -40 83 6 c45 3 104 13 130 22 26
10 51 14 54 11 18 -18 -92 -93 -159 -110 -28 -6 -28 -7 -28 -86 0 -45 4 -80
10 -80 50 0 190 -86 176 -109 -3 -4 -34 0 -69 9 -35 10 -93 19 -128 21 l-64 4
-6 -43 c-3 -24 -12 -48 -20 -53 -8 -5 -119 -9 -246 -9 l-233 0 0 -39 c0 -35 3
-39 31 -45 17 -3 128 -6 245 -6 l214 0 6 -25 c13 -53 3 -55 -257 -55 l-239 0
0 -45 0 -45 244 0 c270 0 256 4 256 -67 l0 -36 74 7 c41 4 98 14 126 22 65 19
77 15 51 -17 -17 -22 -88 -60 -153 -82 -13 -5 -18 -17 -18 -47 0 -39 1 -40 28
-34 57 13 152 64 191 103 48 48 83 115 101 191 17 73 27 92 35 65 28 -91 80
-135 160 -135 63 0 110 28 142 85 28 49 29 99 3 152 -30 63 -72 88 -147 88
-86 0 -126 -33 -159 -130 -6 -18 -8 -17 -20 10 -7 17 -13 38 -14 47 0 10 -9
42 -21 73 -27 72 -104 156 -175 191 -30 14 -54 30 -54 35 0 5 23 20 50 34 109
55 167 131 199 259 11 43 22 80 24 83 3 2 11 -13 17 -34 19 -58 45 -89 90
-107 55 -22 88 -20 139 7 80 41 112 137 72 215 -49 96 -147 125 -237 71 -30
-18 -53 -53 -69 -108 -9 -31 -19 -15 -34 58 -25 120 -103 220 -207 268 -30 13
-54 26 -54 29 0 2 27 17 60 34 107 54 175 142 199 260 15 70 27 93 36 65 28
-91 80 -135 160 -135 125 0 204 136 142 244 -35 62 -68 81 -142 81 -88 0 -128
-33 -161 -130 -6 -18 -8 -17 -20 10 -7 17 -13 38 -14 47 0 10 -10 43 -22 75
-27 72 -102 154 -174 189 -30 15 -54 30 -54 35 0 5 23 20 50 34 108 55 168
133 200 261 10 42 21 78 24 81 2 3 10 -14 17 -37 43 -143 235 -159 298 -25 12
25 21 59 21 76 0 41 -44 121 -78 141 -96 56 -210 12 -241 -93 -15 -50 -23 -42
-40 38 -25 121 -95 214 -194 262 -34 16 -77 33 -94 36 -33 7 -33 7 -33 -35z"/>
<path d="M116 8800 c-58 -18 -116 -103 -116 -168 1 -43 51 -123 90 -144 142
-75 285 82 212 233 -12 25 -34 52 -50 61 -36 22 -98 30 -136 18z"/>
<path d="M615 6662 c-149 -52 -227 -143 -261 -306 -14 -70 -14 -78 6 -157 11
-45 31 -101 44 -124 32 -55 107 -122 162 -146 24 -11 44 -24 44 -29 0 -5 -23
-21 -50 -35 -109 -55 -167 -131 -199 -259 -11 -43 -22 -80 -24 -83 -3 -2 -12
18 -21 45 -19 56 -36 75 -89 97 -50 21 -85 19 -136 -7 -51 -27 -91 -90 -91
-144 0 -40 28 -100 62 -131 49 -45 139 -49 200 -9 27 17 58 71 58 99 0 35 20
25 29 -15 41 -170 100 -252 219 -304 28 -13 52 -26 52 -29 0 -2 -27 -18 -60
-35 -107 -54 -172 -139 -200 -260 -17 -73 -27 -92 -35 -65 -28 91 -80 135
-160 135 -125 0 -204 -136 -142 -244 35 -62 68 -81 142 -81 88 0 128 33 161
130 6 18 8 17 20 -10 7 -16 13 -38 14 -47 0 -10 9 -42 21 -73 27 -72 104 -156
175 -191 30 -14 54 -30 54 -35 0 -5 -23 -20 -50 -34 -109 -55 -167 -131 -199
-259 -11 -43 -22 -80 -25 -83 -2 -3 -10 14 -17 37 -42 140 -228 159 -297 30
-12 -23 -22 -58 -22 -77 0 -45 43 -125 78 -145 96 -56 210 -12 241 93 15 50
23 42 40 -38 25 -121 95 -214 194 -262 34 -16 77 -33 95 -36 32 -7 32 -7 32
35 0 24 -5 42 -12 44 -64 18 -118 44 -147 72 -20 18 -33 35 -30 38 3 3 41 -3
84 -14 43 -11 102 -20 132 -20 l53 0 0 38 c0 21 5 43 12 50 9 9 78 12 250 12
l238 0 0 45 0 45 -244 0 c-236 0 -245 1 -251 20 -3 11 -3 29 0 40 6 19 15 20
251 20 l244 0 0 45 0 45 -238 0 c-172 0 -241 3 -250 12 -7 7 -12 29 -12 50 l0
38 -53 0 c-30 0 -89 -9 -132 -20 -43 -11 -81 -18 -83 -15 -17 17 95 93 161
109 27 6 27 8 27 85 l0 79 -43 10 c-47 12 -132 65 -141 87 -7 19 8 19 77 1 30
-8 84 -17 120 -21 l67 -7 0 38 c0 22 4 45 8 51 6 9 71 13 247 15 l240 3 3 43
3 42 -235 0 c-200 0 -237 2 -250 16 -19 18 -21 45 -4 62 9 9 78 12 251 12
l238 0 -3 43 -3 42 -240 3 c-176 2 -241 6 -247 15 -4 6 -8 29 -8 51 l0 39 -67
-7 c-38 -4 -96 -14 -131 -23 -70 -17 -84 -13 -57 17 22 24 131 80 157 80 16 0
18 9 18 80 0 56 -4 82 -12 84 -89 26 -194 93 -175 112 4 4 32 0 63 -10 31 -10
89 -20 130 -23 l74 -6 0 36 c0 71 -14 67 256 67 l244 0 0 45 0 45 -239 0
c-259 0 -270 2 -257 55 l6 25 243 2 242 3 3 43 3 42 -238 0 c-173 0 -242 3
-251 12 -7 7 -12 30 -12 51 l0 40 -82 -6 c-46 -3 -103 -12 -127 -21 -26 -10
-48 -13 -53 -8 -15 15 68 78 127 97 l55 17 0 79 c0 44 -4 79 -10 79 -50 0
-190 86 -176 109 3 4 34 0 69 -9 35 -10 93 -19 128 -21 l64 -4 6 43 c3 24 12
48 20 53 8 5 119 9 247 9 l232 0 0 39 c0 35 -3 39 -31 45 -17 3 -128 6 -245 6
l-214 0 -6 25 c-13 53 -3 55 257 55 l239 0 0 45 0 45 -244 0 c-270 0 -256 -4
-256 67 l0 36 -70 -6 c-38 -3 -97 -13 -130 -23 -68 -19 -82 -14 -54 17 23 26
64 49 124 70 43 15 45 18 48 57 2 23 0 42 -5 42 -4 -1 -31 -8 -58 -18z"/>
<path d="M120 6449 c-46 -14 -78 -44 -101 -97 -25 -58 -24 -83 6 -143 32 -63
73 -89 140 -89 114 0 184 103 149 220 -15 51 -70 110 -102 110 -9 0 -26 2 -37
4 -11 3 -36 0 -55 -5z"/>
<path d="M12120 6063 c0 -38 2 -40 43 -52 72 -22 159 -85 141 -104 -2 -2 -33
4 -69 14 -54 15 -132 23 -182 20 -8 -1 -13 -16 -13 -39 0 -21 -5 -43 -12 -50
-9 -9 -78 -12 -251 -12 l-238 0 3 -42 3 -43 242 -3 243 -2 6 -25 c13 -53 2
-55 -257 -55 l-239 0 0 -45 0 -45 244 0 c270 0 256 4 256 -67 l0 -36 70 6 c38
3 97 13 130 23 33 9 64 13 68 9 13 -13 -69 -74 -127 -93 l-56 -19 0 -78 0 -78
56 -19 c58 -19 140 -80 127 -93 -4 -4 -33 -1 -65 8 -32 9 -91 20 -130 23 l-73
7 0 -36 c0 -71 14 -67 -256 -67 l-244 0 0 -45 0 -45 239 0 c259 0 270 -2 257
-55 l-6 -25 -243 -2 -242 -3 -3 -42 -3 -43 233 0 c128 0 239 -4 247 -9 8 -5
17 -29 20 -53 l6 -43 64 4 c35 2 93 11 128 21 88 24 94 9 16 -47 -23 -17 -63
-36 -88 -43 l-45 -13 0 -77 0 -78 55 -17 c59 -19 142 -82 127 -97 -5 -5 -27
-2 -53 8 -24 9 -81 18 -126 21 l-83 6 0 -40 c0 -21 -5 -44 -12 -51 -9 -9 -78
-12 -251 -12 l-238 0 3 -42 3 -43 242 -3 c231 -2 242 -3 248 -22 4 -11 3 -29
0 -40 -6 -19 -15 -20 -251 -20 l-244 0 0 -45 0 -45 244 0 c269 0 256 3 256
-66 0 -34 0 -34 48 -34 27 0 85 9 131 21 45 11 86 18 89 14 4 -4 -10 -22 -32
-41 -32 -28 -82 -52 -143 -70 -9 -2 -13 -27 -13 -79 0 -63 3 -77 18 -81 81
-27 185 -94 169 -110 -3 -3 -35 1 -71 10 -36 9 -94 19 -130 23 l-66 6 0 -36
c0 -71 14 -67 -256 -67 l-244 0 0 -45 0 -45 238 0 c172 0 241 -3 250 -12 17
-17 15 -44 -4 -62 -13 -14 -50 -16 -250 -16 l-234 0 0 -39 0 -40 239 -3 c132
-2 243 -6 247 -11 4 -4 10 -26 14 -50 l5 -42 63 3 c35 2 92 12 128 22 35 9 67
13 70 9 14 -23 -126 -109 -176 -109 -6 0 -10 -21 -10 -46 0 -51 -6 -50 97 -12
61 22 143 93 178 152 14 23 34 80 45 125 20 80 20 85 4 159 -31 141 -96 231
-202 281 -29 14 -52 29 -52 35 0 6 21 21 48 33 107 49 176 143 207 281 15 67
15 77 0 145 -9 39 -25 91 -35 114 -27 61 -96 131 -162 164 -32 16 -58 34 -58
39 0 6 20 19 45 30 55 23 128 90 161 145 13 23 32 76 43 119 11 43 22 80 25
83 2 3 10 -13 16 -36 22 -83 89 -128 175 -118 56 6 100 38 125 90 25 51 25 83
1 139 -24 56 -61 89 -108 97 -92 16 -159 -23 -189 -111 -8 -26 -17 -48 -19
-48 -2 0 -11 32 -20 71 -31 138 -100 232 -208 283 -31 14 -57 29 -57 31 0 2
24 16 53 29 108 52 183 147 208 267 15 72 25 91 34 64 19 -57 29 -75 56 -101
24 -23 40 -29 92 -32 53 -3 67 0 97 20 19 13 45 41 57 63 70 123 -39 267 -182
241 -48 -9 -100 -62 -115 -115 -6 -24 -14 -41 -16 -38 -3 3 -14 40 -25 83 -11
43 -30 96 -43 119 -49 83 -147 153 -241 171 l-35 6 0 -39z"/>
<path d="M12564 4316 c-99 -43 -116 -208 -30 -284 85 -74 204 -40 250 72 22
54 20 83 -12 140 -43 78 -127 107 -208 72z"/>
<path d="M609 3534 c-66 -20 -137 -71 -181 -129 -36 -47 -52 -87 -79 -195 -11
-43 -12 -44 -22 -20 -31 75 -42 92 -75 112 -47 29 -124 30 -170 3 -40 -24 -82
-100 -82 -149 0 -105 107 -184 211 -156 52 14 91 54 108 110 7 23 15 40 17 37
3 -3 14 -39 24 -81 32 -128 92 -206 200 -261 27 -14 50 -29 50 -34 0 -5 -24
-21 -54 -35 -71 -35 -148 -119 -175 -191 -12 -31 -21 -63 -21 -73 -1 -9 -7
-30 -14 -47 -12 -27 -14 -28 -20 -10 -33 97 -73 130 -161 130 -74 0 -107 -19
-142 -81 -62 -108 17 -244 142 -244 80 0 132 44 160 135 8 27 18 9 39 -72 32
-126 89 -199 198 -254 56 -28 61 -33 44 -43 -161 -94 -206 -172 -206 -354 0
-91 1 -97 40 -167 46 -83 120 -157 188 -188 36 -16 66 -21 130 -21 45 0 82 -1
82 -3 0 -1 -15 -31 -32 -65 -29 -56 -32 -73 -32 -143 0 -92 23 -155 93 -247
32 -43 57 -63 123 -96 168 -86 326 -62 432 65 l27 33 -35 16 -35 17 -40 -36
c-58 -52 -142 -90 -155 -69 -3 5 27 42 67 83 40 41 79 87 87 102 14 27 13 29
-18 53 -18 14 -32 29 -32 33 0 5 61 95 136 201 121 173 146 220 115 220 -6 0
-78 -81 -160 -179 -83 -99 -154 -182 -159 -185 -12 -7 -52 22 -52 37 0 7 72
91 160 187 88 96 158 180 157 185 -9 26 -47 -1 -202 -145 -92 -85 -172 -156
-179 -158 -6 -1 -23 9 -36 23 -13 14 -27 25 -32 25 -17 0 -102 -86 -140 -142
-21 -32 -41 -58 -45 -58 -3 0 -3 25 -1 55 3 41 13 67 41 109 l36 54 -40 62
c-28 44 -44 60 -55 56 -61 -24 -191 -11 -201 20 -2 6 29 17 75 26 44 9 101 25
127 37 44 19 47 23 41 48 -17 67 -26 60 204 155 118 49 219 93 224 98 7 7 6
14 -1 21 -8 8 -73 -9 -239 -61 -215 -68 -228 -71 -241 -54 -16 22 -17 39 0 51
6 5 112 36 235 68 187 49 222 61 222 77 0 10 -7 18 -16 18 -9 0 -117 -19 -240
-42 -123 -22 -227 -38 -230 -35 -4 3 -9 21 -13 39 -7 33 -7 33 -64 31 -34 -1
-80 -12 -119 -28 -88 -37 -98 -39 -98 -24 0 22 86 96 134 114 l46 18 0 78 c0
70 -2 79 -18 79 -26 0 -135 56 -157 80 -28 30 -12 34 61 16 37 -9 96 -20 131
-23 l63 -6 0 39 c0 21 4 45 8 51 6 9 71 13 247 15 l240 3 3 43 3 42 -239 0
c-200 0 -242 2 -252 15 -17 21 -4 61 22 69 13 3 123 6 246 6 l223 0 -3 43 -3
42 -240 3 c-176 2 -241 6 -247 15 -4 6 -8 29 -8 51 l0 38 -67 -7 c-36 -4 -90
-13 -120 -21 -76 -20 -86 -19 -73 6 13 25 102 76 146 85 l34 6 0 79 c0 79 0
80 -27 86 -66 16 -178 92 -161 109 2 3 40 -4 83 -15 43 -11 102 -20 132 -20
l53 0 0 38 c0 21 5 43 12 50 9 9 78 12 250 12 l238 0 0 45 0 45 -244 0 c-236
0 -245 1 -251 20 -3 11 -3 29 0 40 6 19 15 20 251 20 l244 0 0 45 0 45 -238 0
c-172 0 -241 3 -250 12 -7 7 -12 30 -12 51 l0 40 -77 -6 c-43 -4 -102 -13
-131 -22 -30 -9 -57 -13 -60 -10 -4 4 9 21 29 39 29 28 83 54 147 72 7 2 12
20 12 44 0 45 -2 46 -71 24z"/>
<path d="M12570 3543 c-34 -12 -72 -60 -85 -108 -25 -83 9 -166 82 -204 38
-19 116 -14 153 12 39 26 79 99 79 142 0 45 -39 117 -78 142 -33 22 -111 30
-151 16z"/>
<path d="M12120 2936 c0 -41 2 -44 33 -50 71 -14 194 -106 140 -106 -10 0 -39
7 -65 14 -26 8 -79 18 -117 22 l-71 7 0 -39 c0 -22 -4 -45 -8 -51 -6 -9 -71
-13 -247 -15 l-240 -3 -3 -42 -3 -43 231 0 c140 0 239 -4 251 -10 11 -6 19
-21 19 -35 0 -14 -8 -29 -19 -35 -12 -6 -111 -10 -251 -10 l-231 0 3 -42 3
-43 240 -3 c176 -2 241 -6 247 -15 4 -6 8 -29 8 -51 l0 -38 73 7 c39 4 92 14
117 21 25 8 53 14 63 14 54 0 -69 -92 -140 -106 l-33 -6 0 -78 0 -77 61 -23
c58 -21 141 -82 128 -94 -3 -3 -41 3 -84 14 -43 11 -102 20 -132 20 -48 0 -53
-2 -53 -22 0 -13 -3 -34 -7 -47 l-6 -24 -244 8 c-242 7 -243 7 -243 -14 0 -12
4 -21 9 -21 23 0 447 -51 459 -55 6 -2 12 -18 12 -35 0 -27 -3 -30 -32 -30
-18 0 -127 16 -243 34 -115 19 -213 32 -217 29 -5 -2 -8 -10 -8 -18 0 -16 4
-17 264 -80 105 -25 195 -50 202 -56 9 -7 10 -19 3 -42 -5 -18 -9 -35 -9 -39
0 -14 85 -32 175 -37 51 -3 90 -10 89 -16 -2 -22 -80 -49 -144 -51 l-65 -2
-31 -63 -32 -64 40 -43 c43 -47 68 -97 68 -137 0 -14 -2 -25 -4 -25 -2 0 -35
31 -72 68 -38 38 -84 77 -103 87 l-35 17 -25 -31 c-14 -17 -30 -31 -34 -31 -5
0 -96 61 -204 135 -152 105 -199 133 -209 124 -8 -6 -11 -15 -9 -20 3 -4 87
-74 185 -155 106 -85 180 -153 180 -163 0 -20 -19 -41 -36 -41 -6 0 -90 70
-185 155 -96 85 -179 155 -186 155 -36 0 -11 -35 124 -176 81 -85 157 -166
167 -179 l20 -25 -27 -28 c-15 -15 -27 -33 -27 -38 0 -15 98 -107 155 -145 50
-34 50 -34 21 -37 -47 -6 -89 6 -140 38 -25 17 -51 30 -57 30 -5 0 -34 -17
-65 -37 -45 -30 -54 -41 -49 -57 22 -75 10 -193 -20 -203 -6 -2 -18 33 -27 79
-9 46 -25 105 -37 132 -19 42 -24 47 -44 41 -68 -22 -64 -28 -163 205 -61 144
-96 216 -107 218 -11 2 -17 -3 -17 -15 0 -10 32 -114 71 -231 39 -117 68 -219
65 -227 -3 -9 -18 -15 -36 -15 -27 0 -31 4 -41 43 -69 265 -116 412 -132 415
-24 5 -23 -3 25 -256 45 -240 45 -241 -10 -242 -12 0 -25 -7 -29 -16 -8 -22
14 -119 43 -183 13 -29 24 -57 24 -62 0 -37 -83 39 -116 107 -25 52 -28 54
-65 54 -38 0 -39 -1 -33 -28 12 -53 51 -128 85 -161 19 -19 59 -46 89 -60 50
-23 66 -26 173 -26 64 1 117 0 117 -1 0 0 -26 -17 -57 -37 -73 -45 -105 -87
-111 -147 -3 -39 0 -51 22 -77 14 -17 41 -38 60 -47 102 -48 296 16 346 114
38 75 18 139 -53 177 -18 10 -67 19 -112 22 l-80 6 72 42 c132 79 187 166 189
301 0 45 4 82 8 83 3 0 31 -12 61 -26 110 -54 224 -42 344 35 35 23 65 39 68
37 2 -3 -5 -32 -17 -66 -24 -71 -25 -100 -6 -144 27 -65 114 -89 198 -54 47
20 120 92 148 147 94 185 -56 311 -230 193 -45 -30 -50 -14 -16 54 33 66 50
145 43 204 -7 61 -42 140 -73 170 -37 35 -30 46 35 52 181 16 327 187 322 378
-4 173 -78 296 -213 352 -21 9 -38 21 -38 26 0 6 22 20 49 32 69 29 152 118
179 192 12 32 22 65 22 75 1 9 7 31 14 47 12 27 14 28 20 10 33 -97 73 -130
161 -130 74 0 107 19 142 81 29 50 29 108 0 158 -33 57 -67 79 -134 84 -49 3
-64 0 -93 -20 -32 -22 -60 -64 -75 -113 -9 -28 -21 -5 -36 65 -30 143 -122
241 -268 286 -25 7 -47 14 -48 14 -2 0 -3 -20 -3 -44z"/>
<path d="M12556 1951 c-39 -26 -63 -64 -86 -140 -56 -178 68 -350 196 -272 63
38 98 105 110 209 9 79 -9 137 -56 184 -33 34 -43 38 -86 38 -31 0 -59 -7 -78
-19z"/>
<path d="M165 1696 c-74 -32 -107 -116 -86 -218 28 -133 102 -218 188 -218 90
0 133 60 133 184 0 65 -5 85 -29 134 -35 68 -75 109 -122 122 -42 12 -47 12
-84 -4z"/>
<path d="M1835 1268 c-3 -7 -29 -114 -58 -238 l-53 -225 -46 3 c-46 3 -47 3
-58 -35 -6 -21 -14 -80 -17 -130 -3 -51 -10 -93 -14 -93 -21 0 -51 85 -53 148
-2 63 -3 66 -34 80 -17 9 -35 12 -39 8 -5 -4 -8 -44 -8 -89 1 -69 5 -90 27
-133 38 -73 113 -137 208 -175 44 -18 80 -37 80 -41 0 -4 -17 -8 -37 -8 -84 0
-157 -39 -189 -103 -47 -91 67 -202 220 -214 84 -7 154 16 197 64 28 33 31 41
27 85 -4 40 -12 56 -43 88 -21 21 -60 48 -87 60 -28 12 -48 24 -45 26 3 3 38
10 79 15 138 19 226 77 279 185 18 35 35 64 40 64 5 0 21 -25 35 -55 32 -65
106 -138 167 -165 23 -10 75 -26 115 -35 67 -15 77 -15 144 0 138 31 232 100
281 208 12 26 26 47 32 47 5 0 25 -29 44 -65 53 -103 134 -159 272 -189 73
-17 78 -17 159 3 46 12 102 32 125 45 55 32 122 107 146 162 11 24 24 44 29
44 5 0 21 -23 35 -50 55 -109 131 -167 259 -199 43 -11 80 -22 83 -24 2 -3
-18 -12 -45 -21 -56 -19 -75 -36 -97 -89 -21 -50 -19 -85 8 -136 26 -51 89
-91 143 -91 40 0 100 28 131 62 45 49 49 139 9 200 -17 27 -71 58 -99 58 -35
0 -25 20 15 30 91 22 115 31 165 60 67 38 120 104 149 186 13 35 24 69 24 74
0 15 -80 12 -84 -2 -18 -62 -42 -112 -70 -144 -19 -22 -37 -36 -41 -32 -4 3 3
44 14 89 12 46 21 104 21 131 0 48 0 48 -34 48 -69 0 -66 -13 -66 256 l0 244
-45 0 -45 0 0 -239 c0 -259 -2 -270 -55 -257 l-25 6 -2 243 -3 242 -42 3 -43
3 0 -238 c0 -173 -3 -242 -12 -251 -7 -7 -30 -12 -51 -12 l-40 0 6 -82 c3 -46
12 -103 21 -127 9 -24 13 -47 10 -53 -15 -24 -91 84 -108 155 -6 27 -7 27 -86
27 -45 0 -80 -4 -80 -10 0 -50 -86 -190 -109 -176 -4 3 0 34 9 69 10 35 19 93
21 128 l4 64 -43 6 c-24 3 -48 12 -53 20 -5 8 -9 119 -9 247 l0 232 -39 0
c-32 0 -40 -4 -45 -22 -3 -13 -6 -123 -6 -245 l0 -223 -25 -6 c-53 -13 -55 -3
-55 257 l0 239 -45 0 -45 0 0 -244 c0 -270 4 -256 -67 -256 l-36 0 6 -70 c3
-38 13 -97 23 -130 19 -68 14 -82 -17 -54 -26 23 -49 64 -70 124 l-16 45 -76
3 c-57 2 -78 -1 -81 -10 -26 -89 -93 -194 -111 -176 -4 4 0 35 9 68 10 33 20
92 23 130 l6 70 -36 0 c-71 0 -67 -14 -67 256 l0 244 -45 0 -45 0 0 -239 c0
-259 -2 -270 -55 -257 l-25 6 -2 243 -3 242 -42 3 -43 3 0 -240 c0 -227 -1
-241 -19 -251 -11 -5 -33 -10 -50 -10 -18 0 -31 -5 -32 -12 -3 -47 5 -121 21
-179 10 -38 14 -71 10 -74 -16 -10 -81 80 -96 132 l-15 53 -78 0 -77 0 -17
-54 c-20 -62 -70 -136 -93 -136 -12 0 -15 6 -10 23 23 81 35 139 38 187 3 52
2 55 -22 58 -14 1 -36 5 -49 8 l-24 5 6 245 c6 236 6 244 -13 244 -23 0 -23 2
-51 -270 -11 -113 -25 -208 -31 -211 -5 -3 -20 -4 -34 -1 -31 6 -31 11 7 264
17 114 29 214 26 222 -8 19 -26 21 -32 4z"/>
<path d="M4820 1022 c0 -172 -3 -241 -12 -250 -7 -7 -29 -12 -50 -12 l-38 0 0
-53 c0 -30 9 -89 20 -132 11 -43 17 -81 14 -84 -12 -13 -73 70 -94 128 -23 61
-23 61 -62 61 -39 0 -40 0 -33 -32 12 -56 51 -134 90 -176 50 -56 110 -89 207
-113 79 -20 86 -20 155 -5 143 31 231 93 284 201 17 36 35 62 40 60 4 -3 19
-29 32 -58 27 -59 93 -130 148 -157 20 -11 72 -29 115 -40 43 -12 80 -23 82
-25 2 -2 -14 -9 -37 -15 -84 -22 -127 -84 -119 -171 6 -59 30 -95 84 -126 71
-41 166 -19 217 49 25 33 34 117 17 158 -17 41 -62 77 -111 90 -23 6 -39 13
-37 15 2 2 39 13 82 25 43 11 95 29 115 40 54 27 123 101 151 160 13 27 28 50
34 50 6 0 19 -19 29 -43 46 -112 138 -177 305 -218 49 -11 48 -24 -3 -33 -69
-13 -125 -105 -109 -179 11 -53 35 -84 85 -111 57 -31 95 -33 154 -5 77 36
111 123 80 204 -18 49 -49 75 -108 95 -21 6 -36 14 -34 17 3 2 39 13 81 23
128 32 206 92 261 200 14 27 30 50 35 50 5 0 18 -20 29 -44 24 -55 92 -130
145 -161 23 -13 77 -33 121 -45 44 -12 81 -23 83 -25 2 -2 -14 -9 -37 -15 -84
-22 -128 -89 -118 -177 6 -55 31 -91 83 -120 110 -61 244 17 244 142 0 80 -44
132 -135 160 -27 8 -8 18 65 35 76 18 143 53 191 101 39 39 90 134 103 191 6
27 5 28 -35 28 -34 0 -42 -4 -47 -22 -11 -45 -68 -141 -91 -157 -28 -18 -28
-32 3 114 9 39 16 87 16 108 0 36 -1 37 -37 37 -21 0 -44 4 -50 8 -9 6 -13 71
-15 247 l-3 240 -42 3 -43 3 0 -238 c0 -173 -3 -242 -12 -251 -17 -17 -44 -15
-62 4 -14 13 -16 50 -16 250 l0 235 -42 -3 -43 -3 -3 -240 c-2 -176 -6 -241
-15 -247 -6 -4 -29 -8 -51 -8 l-38 0 7 -67 c4 -36 13 -90 21 -120 18 -69 18
-84 -1 -77 -22 9 -75 94 -87 141 l-10 43 -79 0 c-77 0 -79 0 -85 -27 -16 -66
-92 -178 -109 -161 -3 2 4 40 15 83 11 43 20 102 20 132 l0 53 -38 0 c-21 0
-43 5 -50 12 -9 9 -12 78 -12 250 l0 238 -45 0 -45 0 0 -244 c0 -236 -1 -245
-20 -251 -11 -3 -29 -3 -40 0 -19 6 -20 15 -20 251 l0 244 -45 0 -45 0 0 -238
c0 -172 -3 -241 -12 -250 -7 -7 -30 -12 -51 -12 l-40 0 6 -77 c4 -43 13 -102
22 -131 9 -30 13 -57 10 -60 -4 -4 -22 10 -41 32 -28 32 -52 82 -70 144 -2 8
-28 12 -83 12 l-79 0 -6 -32 c-14 -72 -106 -195 -106 -141 0 10 7 39 14 65 8
26 18 79 22 117 l7 71 -39 0 c-22 0 -45 4 -51 8 -9 6 -13 71 -15 247 l-3 240
-42 3 -43 3 0 -241 0 -240 -24 -11 c-17 -8 -29 -8 -45 0 -21 11 -21 17 -21
252 l0 240 -42 -3 -43 -3 -3 -240 c-2 -176 -6 -241 -15 -247 -6 -4 -29 -8 -51
-8 l-38 0 7 -72 c4 -40 14 -93 21 -118 8 -25 14 -53 14 -63 0 -54 -92 69 -106
141 l-6 32 -78 0 -77 0 -23 -61 c-21 -58 -82 -141 -94 -128 -3 3 3 41 14 84
11 43 20 102 20 132 l0 53 -38 0 c-21 0 -43 5 -50 12 -9 9 -12 78 -12 250 l0
238 -45 0 -45 0 0 -244 c0 -236 -1 -245 -20 -251 -11 -3 -29 -3 -40 0 -19 6
-20 15 -20 251 l0 244 -45 0 -45 0 0 -238z"/>
<path d="M7950 1028 c0 -128 -4 -239 -9 -247 -5 -8 -29 -17 -53 -20 l-43 -6 4
-64 c2 -35 11 -93 21 -128 9 -35 13 -66 9 -69 -23 -14 -109 126 -109 176 0 6
-20 10 -44 10 l-44 0 18 -60 c23 -76 49 -117 106 -170 54 -50 103 -73 202 -95
69 -16 78 -16 145 0 138 34 227 99 276 203 14 29 29 52 35 52 6 0 21 -21 33
-47 47 -103 146 -179 264 -204 72 -15 91 -25 64 -34 -57 -19 -75 -29 -101 -56
-23 -24 -29 -40 -32 -92 -3 -53 0 -67 20 -97 73 -108 228 -102 286 10 48 93 9
193 -89 225 -27 9 -48 19 -46 22 3 2 40 13 83 24 127 32 207 92 259 197 14 28
30 52 35 52 5 0 21 -24 35 -52 52 -105 132 -165 259 -197 43 -11 80 -22 83
-24 2 -3 -19 -13 -46 -22 -65 -21 -102 -67 -108 -133 -11 -127 123 -220 235
-163 76 39 107 104 90 188 -10 48 -62 100 -109 110 -16 3 -32 9 -34 14 -6 8
56 29 86 29 9 0 48 16 87 36 79 39 130 91 165 166 12 27 26 48 32 48 5 0 25
-29 44 -65 52 -101 131 -156 268 -190 67 -16 76 -16 145 0 99 22 148 45 202
95 57 53 83 94 106 170 l18 60 -44 0 c-24 0 -44 -4 -44 -10 0 -50 -86 -190
-109 -176 -4 3 0 35 9 70 10 36 20 93 22 128 l3 63 -43 6 c-24 3 -48 12 -53
20 -5 8 -9 119 -9 247 l0 233 -42 -3 -43 -3 -3 -242 -2 -243 -25 -6 c-53 -13
-55 -2 -55 257 l0 239 -45 0 -45 0 0 -244 c0 -270 4 -256 -67 -256 l-36 0 7
-72 c3 -40 14 -99 23 -131 18 -65 13 -79 -18 -51 -26 23 -49 64 -70 124 l-16
45 -76 3 c-57 2 -78 -1 -81 -10 -26 -89 -93 -194 -111 -176 -4 4 0 35 9 68 10
33 20 92 23 130 l6 70 -36 0 c-71 0 -67 -14 -67 256 l0 244 -45 0 -45 0 0
-239 c0 -259 -2 -270 -55 -257 l-25 6 -2 243 -3 242 -42 3 -43 3 0 -240 c0
-227 -1 -241 -19 -251 -11 -5 -34 -10 -52 -10 l-32 0 6 -82 c3 -46 12 -103 21
-127 10 -26 13 -48 8 -53 -15 -15 -81 71 -99 129 l-17 53 -76 0 -76 0 -17 -53
c-16 -52 -81 -142 -96 -133 -4 3 0 36 10 73 10 37 18 96 18 131 l1 62 -31 0
c-17 0 -39 5 -50 10 -18 10 -19 24 -19 251 l0 240 -42 -3 -43 -3 -3 -242 -2
-243 -25 -6 c-53 -13 -55 -2 -55 257 l0 239 -45 0 -45 0 0 -244 c0 -270 4
-256 -67 -256 l-36 0 6 -70 c3 -38 13 -97 23 -130 9 -33 13 -64 9 -68 -18 -18
-85 87 -111 176 -3 9 -24 12 -81 10 l-76 -3 -16 -45 c-21 -60 -44 -101 -70
-124 -31 -28 -36 -14 -18 51 9 32 20 91 23 131 l7 72 -36 0 c-71 0 -67 -14
-67 256 l0 244 -45 0 -45 0 0 -239 c0 -259 -2 -270 -55 -257 l-25 6 -2 243 -3
242 -42 3 -43 3 0 -233z"/>
<path d="M665 797 c-53 -25 -70 -53 -70 -116 1 -69 34 -133 98 -185 89 -72
171 -92 237 -58 92 49 89 166 -7 273 -69 76 -191 116 -258 86z"/>
<path d="M2556 319 c-80 -19 -126 -76 -126 -156 0 -57 30 -104 86 -135 57 -32
86 -34 140 -12 152 62 146 253 -9 299 -28 8 -51 15 -51 14 -1 -1 -18 -5 -40
-10z"/>
<path d="M3320 314 c-86 -25 -131 -104 -109 -189 14 -51 43 -82 97 -106 58
-25 88 -24 147 9 59 32 85 76 85 143 0 107 -108 177 -220 143z"/>
<path d="M4900 319 c-54 -17 -87 -46 -105 -94 -31 -81 3 -168 80 -204 59 -28
93 -26 154 5 83 43 111 125 72 211 -30 66 -125 104 -201 82z"/>
<path d="M8017 315 c-76 -27 -114 -88 -104 -170 6 -56 38 -100 90 -125 51 -25
83 -25 139 -1 56 24 90 61 97 108 16 91 -23 159 -107 188 -55 18 -66 18 -115
0z"/>
<path d="M10347 316 c-73 -27 -107 -76 -107 -154 0 -84 77 -162 160 -162 51 0
131 48 153 90 23 45 18 130 -10 168 -39 54 -132 81 -196 58z"/>
</g>
</svg>
